<?xml version="1.0" encoding="UTF-8" standalone="no"?><svg xmlns="http://www.w3.org/2000/svg" xmlns:xlink="http://www.w3.org/1999/xlink" contentStyleType="text/css" height="1573px" preserveAspectRatio="none" style="width:996px;height:1573px;background:#FFFFFF;" version="1.1" viewBox="0 0 996 1573" width="996px" zoomAndPan="magnify"><defs><filter height="300%" id="f13rgkemywk0d8" width="300%" x="-1" y="-1"><feGaussianBlur result="blurOut" stdDeviation="2.0"/><feColorMatrix in="blurOut" result="blurOut2" type="matrix" values="0 0 0 0 0 0 0 0 0 0 0 0 0 0 0 0 0 0 .4 0"/><feOffset dx="4.0" dy="4.0" in="blurOut2" result="blurOut3"/><feBlend in="SourceGraphic" in2="blurOut3" mode="normal"/></filter></defs><g><ellipse cx="106.5" cy="52.0381" fill="#000000" filter="url(#f13rgkemywk0d8)" rx="10" ry="10" style="stroke:#000000;stroke-width:1.0;"/><rect fill="#FEFECE" filter="url(#f13rgkemywk0d8)" height="36.3887" rx="12.5" ry="12.5" style="stroke:#A80036;stroke-width:1.5;" width="97" x="58" y="82.0381"/><text fill="#000000" font-family="sans-serif" font-size="12" lengthAdjust="spacing" textLength="77" x="68" y="105.79">dev/sprint分支</text><rect fill="#FEFECE" filter="url(#f13rgkemywk0d8)" height="36.3887" rx="12.5" ry="12.5" style="stroke:#A80036;stroke-width:1.5;" width="130" x="41.5" y="138.4268"/><text fill="#000000" font-family="sans-serif" font-size="12" lengthAdjust="spacing" textLength="110" x="51.5" y="162.1787">git checkout -b feat/*</text><rect fill="#FEFECE" filter="url(#f13rgkemywk0d8)" height="36.3887" rx="12.5" ry="12.5" style="stroke:#A80036;stroke-width:1.5;" width="163" x="25" y="194.8154"/><text fill="#000000" font-family="sans-serif" font-size="12" lengthAdjust="spacing" textLength="143" x="35" y="218.5674">从dev拉出新迭代分支feat/*</text><rect fill="#FEFECE" filter="url(#f13rgkemywk0d8)" height="36.3887" rx="12.5" ry="12.5" style="stroke:#A80036;stroke-width:1.5;" width="97" x="58" y="363.9814"/><text fill="#000000" font-family="sans-serif" font-size="12" lengthAdjust="spacing" textLength="77" x="68" y="387.7334">dev/sprint分支</text><rect fill="#FEFECE" filter="url(#f13rgkemywk0d8)" height="36.3887" rx="12.5" ry="12.5" style="stroke:#A80036;stroke-width:1.5;" width="166" x="23.5" y="420.3701"/><text fill="#000000" font-family="sans-serif" font-size="12" lengthAdjust="spacing" textLength="146" x="33.5" y="444.1221">提交MR到test分支进行转测</text><rect fill="#FEFECE" filter="url(#f13rgkemywk0d8)" height="36.3887" rx="12.5" ry="12.5" style="stroke:#A80036;stroke-width:1.5;" width="121" x="46" y="582.6589"/><text fill="#000000" font-family="sans-serif" font-size="12" lengthAdjust="spacing" textLength="101" x="56" y="606.4109">git checkout -b fix/*</text><rect fill="#FEFECE" filter="url(#f13rgkemywk0d8)" height="36.3887" rx="12.5" ry="12.5" style="stroke:#A80036;stroke-width:1.5;" width="154" x="29.5" y="639.0476"/><text fill="#000000" font-family="sans-serif" font-size="12" lengthAdjust="spacing" textLength="134" x="39.5" y="662.7996">从dev拉出新修复分支fix/*</text><rect fill="#FEFECE" filter="url(#f13rgkemywk0d8)" height="36.3887" rx="12.5" ry="12.5" style="stroke:#A80036;stroke-width:1.5;" width="138" x="37.5" y="1083.2056"/><text fill="#000000" font-family="sans-serif" font-size="12" lengthAdjust="spacing" textLength="118" x="47.5" y="1106.9575">git checkout -b hotfix/*</text><rect fill="#FEFECE" filter="url(#f13rgkemywk0d8)" height="36.3887" rx="12.5" ry="12.5" style="stroke:#A80036;stroke-width:1.5;" width="171" x="21" y="1139.5942"/><text fill="#000000" font-family="sans-serif" font-size="12" lengthAdjust="spacing" textLength="151" x="31" y="1163.3462">从dev拉出新修复分支hotfix/*</text><line style="stroke:#000000;stroke-width:2.0;" x1="15" x2="15" y1="12.4551" y2="1556.2407"/><rect fill="#FEFECE" filter="url(#f13rgkemywk0d8)" height="36.3887" rx="12.5" ry="12.5" style="stroke:#A80036;stroke-width:1.5;" width="48" x="269.5" y="251.2041"/><text fill="#000000" font-family="sans-serif" font-size="12" lengthAdjust="spacing" textLength="28" x="279.5" y="274.9561">feat/*</text><rect fill="#FEFECE" filter="url(#f13rgkemywk0d8)" height="36.3887" rx="12.5" ry="12.5" style="stroke:#A80036;stroke-width:1.5;" width="171" x="208" y="307.5928"/><text fill="#000000" font-family="sans-serif" font-size="12" lengthAdjust="spacing" textLength="151" x="218" y="331.3447">开发完成合并基线到dev分支</text><line style="stroke:#000000;stroke-width:2.0;" x1="202" x2="202" y1="12.4551" y2="1556.2407"/><rect fill="#FEFECE" filter="url(#f13rgkemywk0d8)" height="36.3887" rx="12.5" ry="12.5" style="stroke:#A80036;stroke-width:1.5;" width="80" x="399" y="476.7588"/><text fill="#000000" font-family="sans-serif" font-size="12" lengthAdjust="spacing" textLength="60" x="409" y="500.5107">test/sit分支</text><rect fill="#FEFECE" filter="url(#f13rgkemywk0d8)" height="36.3887" rx="12.5" ry="12.5" style="stroke:#A80036;stroke-width:1.5;" width="80" x="399" y="818.8108"/><text fill="#000000" font-family="sans-serif" font-size="12" lengthAdjust="spacing" textLength="60" x="409" y="842.5627">test/sit分支</text><polygon fill="#FEFECE" filter="url(#f13rgkemywk0d8)" points="416,875.1995,462,875.1995,474,887.1995,462,899.1995,416,899.1995,404,887.1995,416,875.1995" style="stroke:#A80036;stroke-width:1.5;"/><text fill="#000000" font-family="sans-serif" font-size="11" lengthAdjust="spacing" textLength="22" x="443" y="911.8054">没有</text><text fill="#000000" font-family="sans-serif" font-size="11" lengthAdjust="spacing" textLength="46" x="416" y="892.2939">存在bug?</text><text fill="#000000" font-family="sans-serif" font-size="11" lengthAdjust="spacing" textLength="11" x="474" y="884.7825">有</text><polygon fill="#FEFECE" filter="url(#f13rgkemywk0d8)" points="416,533.1475,462,533.1475,474,545.1475,462,557.1475,416,557.1475,404,545.1475,416,533.1475" style="stroke:#A80036;stroke-width:1.5;"/><text fill="#000000" font-family="sans-serif" font-size="11" lengthAdjust="spacing" textLength="11" x="443" y="569.7534">有</text><text fill="#000000" font-family="sans-serif" font-size="11" lengthAdjust="spacing" textLength="46" x="416" y="550.2419">存在bug?</text><polygon fill="#FEFECE" filter="url(#f13rgkemywk0d8)" points="439,989.6941,451,1001.6941,439,1013.6941,427,1001.6941,439,989.6941" style="stroke:#A80036;stroke-width:1.5;"/><rect fill="#FEFECE" filter="url(#f13rgkemywk0d8)" height="36.3887" rx="12.5" ry="12.5" style="stroke:#A80036;stroke-width:1.5;" width="80" x="399" y="1319.3574"/><text fill="#000000" font-family="sans-serif" font-size="12" lengthAdjust="spacing" textLength="60" x="409" y="1343.1094">test/sit分支</text><polygon fill="#FEFECE" filter="url(#f13rgkemywk0d8)" points="416,1375.7461,462,1375.7461,474,1387.7461,462,1399.7461,416,1399.7461,404,1387.7461,416,1375.7461" style="stroke:#A80036;stroke-width:1.5;"/><text fill="#000000" font-family="sans-serif" font-size="11" lengthAdjust="spacing" textLength="22" x="443" y="1412.3521">没有</text><text fill="#000000" font-family="sans-serif" font-size="11" lengthAdjust="spacing" textLength="46" x="416" y="1392.8406">存在bug?</text><text fill="#000000" font-family="sans-serif" font-size="11" lengthAdjust="spacing" textLength="11" x="474" y="1385.3291">有</text><line style="stroke:#000000;stroke-width:2.0;" x1="389" x2="389" y1="12.4551" y2="1556.2407"/><rect fill="#FEFECE" filter="url(#f13rgkemywk0d8)" height="36.3887" rx="12.5" ry="12.5" style="stroke:#A80036;stroke-width:1.5;" width="142" x="524" y="751.825"/><text fill="#000000" font-family="sans-serif" font-size="12" lengthAdjust="spacing" textLength="122" x="534" y="775.5769">提交MR到test分支转测</text><rect fill="#FEFECE" filter="url(#f13rgkemywk0d8)" height="36.3887" rx="12.5" ry="12.5" style="stroke:#A80036;stroke-width:1.5;" width="39" x="575.5" y="695.4363"/><text fill="#000000" font-family="sans-serif" font-size="12" lengthAdjust="spacing" textLength="19" x="585.5" y="719.1882">fix/*</text><line style="stroke:#000000;stroke-width:2.0;" x1="518" x2="518" y1="12.4551" y2="1556.2407"/><rect fill="#FEFECE" filter="url(#f13rgkemywk0d8)" height="36.3887" rx="12.5" ry="12.5" style="stroke:#A80036;stroke-width:1.5;" width="86" x="683" y="933.3054"/><text fill="#000000" font-family="sans-serif" font-size="12" lengthAdjust="spacing" textLength="66" x="693" y="957.0574">master/线上</text><rect fill="#FEFECE" filter="url(#f13rgkemywk0d8)" height="36.3887" rx="12.5" ry="12.5" style="stroke:#A80036;stroke-width:1.5;" width="86" x="683" y="1433.8521"/><text fill="#000000" font-family="sans-serif" font-size="12" lengthAdjust="spacing" textLength="66" x="693" y="1457.604">master/线上</text><polygon fill="#FEFECE" filter="url(#f13rgkemywk0d8)" points="703,1033.6941,749,1033.6941,761,1045.6941,749,1057.6941,703,1057.6941,691,1045.6941,703,1033.6941" style="stroke:#A80036;stroke-width:1.5;"/><text fill="#000000" font-family="sans-serif" font-size="11" lengthAdjust="spacing" textLength="11" x="730" y="1070.3">有</text><text fill="#000000" font-family="sans-serif" font-size="11" lengthAdjust="spacing" textLength="46" x="703" y="1050.7886">存在bug?</text><polygon fill="#FEFECE" filter="url(#f13rgkemywk0d8)" points="726,1490.2407,738,1502.2407,726,1514.2407,714,1502.2407,726,1490.2407" style="stroke:#A80036;stroke-width:1.5;"/><ellipse cx="726" cy="1545.2407" fill="#FFFFFF" filter="url(#f13rgkemywk0d8)" rx="11" ry="11" style="stroke:#000000;stroke-width:1.0;"/><ellipse cx="726" cy="1545.2407" fill="#000000" rx="6" ry="6" style="stroke:#7F7F7F;stroke-width:1.0;"/><line style="stroke:#000000;stroke-width:2.0;" x1="676" x2="676" y1="12.4551" y2="1556.2407"/><rect fill="#FEFECE" filter="url(#f13rgkemywk0d8)" height="36.3887" rx="12.5" ry="12.5" style="stroke:#A80036;stroke-width:1.5;" width="142" x="824.5" y="1252.3716"/><text fill="#000000" font-family="sans-serif" font-size="12" lengthAdjust="spacing" textLength="122" x="834.5" y="1276.1235">提交MR到test分支转测</text><rect fill="#FEFECE" filter="url(#f13rgkemywk0d8)" height="36.3887" rx="12.5" ry="12.5" style="stroke:#A80036;stroke-width:1.5;" width="56" x="867.5" y="1195.9829"/><text fill="#000000" font-family="sans-serif" font-size="12" lengthAdjust="spacing" textLength="36" x="877.5" y="1219.7349">hotfix/*</text><line style="stroke:#000000;stroke-width:2.0;" x1="818.5" x2="818.5" y1="12.4551" y2="1556.2407"/><line style="stroke:#000000;stroke-width:2.0;" x1="976.5" x2="976.5" y1="12.4551" y2="1556.2407"/><line style="stroke:#A80036;stroke-width:1.5;" x1="106.5" x2="106.5" y1="62.0381" y2="82.0381"/><polygon fill="#A80036" points="102.5,72.0381,106.5,82.0381,110.5,72.0381,106.5,76.0381" style="stroke:#A80036;stroke-width:1.0;"/><line style="stroke:#A80036;stroke-width:1.5;" x1="106.5" x2="106.5" y1="118.4268" y2="138.4268"/><polygon fill="#A80036" points="102.5,128.4268,106.5,138.4268,110.5,128.4268,106.5,132.4268" style="stroke:#A80036;stroke-width:1.0;"/><line style="stroke:#A80036;stroke-width:1.5;" x1="106.5" x2="106.5" y1="174.8154" y2="194.8154"/><polygon fill="#A80036" points="102.5,184.8154,106.5,194.8154,110.5,184.8154,106.5,188.8154" style="stroke:#A80036;stroke-width:1.0;"/><line style="stroke:#A80036;stroke-width:1.5;" x1="106.5" x2="106.5" y1="400.3701" y2="420.3701"/><polygon fill="#A80036" points="102.5,410.3701,106.5,420.3701,110.5,410.3701,106.5,414.3701" style="stroke:#A80036;stroke-width:1.0;"/><line style="stroke:#A80036;stroke-width:1.5;" x1="106.5" x2="106.5" y1="619.0476" y2="639.0476"/><polygon fill="#A80036" points="102.5,629.0476,106.5,639.0476,110.5,629.0476,106.5,633.0476" style="stroke:#A80036;stroke-width:1.0;"/><line style="stroke:#A80036;stroke-width:1.5;" x1="106.5" x2="106.5" y1="1119.5942" y2="1139.5942"/><polygon fill="#A80036" points="102.5,1129.5942,106.5,1139.5942,110.5,1129.5942,106.5,1133.5942" style="stroke:#A80036;stroke-width:1.0;"/><line style="stroke:#A80036;stroke-width:1.5;" x1="293.5" x2="293.5" y1="287.5928" y2="307.5928"/><polygon fill="#A80036" points="289.5,297.5928,293.5,307.5928,297.5,297.5928,293.5,301.5928" style="stroke:#A80036;stroke-width:1.0;"/><line style="stroke:#A80036;stroke-width:1.5;" x1="439" x2="439" y1="855.1995" y2="875.1995"/><polygon fill="#A80036" points="435,865.1995,439,875.1995,443,865.1995,439,869.1995" style="stroke:#A80036;stroke-width:1.0;"/><line style="stroke:#A80036;stroke-width:1.5;" x1="474" x2="499" y1="545.1475" y2="545.1475"/><polygon fill="#A80036" points="495,753.825,499,763.825,503,753.825,499,757.825" style="stroke:#A80036;stroke-width:1.5;"/><line style="stroke:#A80036;stroke-width:1.5;" x1="499" x2="499" y1="545.1475" y2="1001.6941"/><line style="stroke:#A80036;stroke-width:1.5;" x1="499" x2="451" y1="1001.6941" y2="1001.6941"/><polygon fill="#A80036" points="461,997.6941,451,1001.6941,461,1005.6941,457,1001.6941" style="stroke:#A80036;stroke-width:1.0;"/><line style="stroke:#A80036;stroke-width:1.5;" x1="439" x2="439" y1="513.1475" y2="533.1475"/><polygon fill="#A80036" points="435,523.1475,439,533.1475,443,523.1475,439,527.1475" style="stroke:#A80036;stroke-width:1.0;"/><line style="stroke:#A80036;stroke-width:1.5;" x1="439" x2="439" y1="1355.7461" y2="1375.7461"/><polygon fill="#A80036" points="435,1365.7461,439,1375.7461,443,1365.7461,439,1369.7461" style="stroke:#A80036;stroke-width:1.0;"/><line style="stroke:#A80036;stroke-width:1.5;" x1="595" x2="595" y1="731.825" y2="751.825"/><polygon fill="#A80036" points="591,741.825,595,751.825,599,741.825,595,745.825" style="stroke:#A80036;stroke-width:1.0;"/><line style="stroke:#A80036;stroke-width:1.5;" x1="761" x2="799.5" y1="1045.6941" y2="1045.6941"/><polygon fill="#A80036" points="795.5,1254.3716,799.5,1264.3716,803.5,1254.3716,799.5,1258.3716" style="stroke:#A80036;stroke-width:1.5;"/><line style="stroke:#A80036;stroke-width:1.5;" x1="799.5" x2="799.5" y1="1045.6941" y2="1502.2407"/><line style="stroke:#A80036;stroke-width:1.5;" x1="799.5" x2="738" y1="1502.2407" y2="1502.2407"/><polygon fill="#A80036" points="748,1498.2407,738,1502.2407,748,1506.2407,744,1502.2407" style="stroke:#A80036;stroke-width:1.0;"/><line style="stroke:#A80036;stroke-width:1.5;" x1="726" x2="726" y1="1470.2407" y2="1490.2407"/><polygon fill="#A80036" points="722,1480.2407,726,1490.2407,730,1480.2407,726,1484.2407" style="stroke:#A80036;stroke-width:1.0;"/><line style="stroke:#A80036;stroke-width:1.5;" x1="726" x2="726" y1="1514.2407" y2="1534.2407"/><polygon fill="#A80036" points="722,1524.2407,726,1534.2407,730,1524.2407,726,1528.2407" style="stroke:#A80036;stroke-width:1.0;"/><line style="stroke:#A80036;stroke-width:1.5;" x1="895.5" x2="895.5" y1="1232.3716" y2="1252.3716"/><polygon fill="#A80036" points="891.5,1242.3716,895.5,1252.3716,899.5,1242.3716,895.5,1246.3716" style="stroke:#A80036;stroke-width:1.0;"/><line style="stroke:#A80036;stroke-width:1.5;" x1="106.5" x2="106.5" y1="231.2041" y2="236.2041"/><line style="stroke:#A80036;stroke-width:1.5;" x1="106.5" x2="293.5" y1="236.2041" y2="236.2041"/><line style="stroke:#A80036;stroke-width:1.5;" x1="293.5" x2="293.5" y1="236.2041" y2="251.2041"/><polygon fill="#A80036" points="289.5,241.2041,293.5,251.2041,297.5,241.2041,293.5,245.2041" style="stroke:#A80036;stroke-width:1.0;"/><line style="stroke:#A80036;stroke-width:1.5;" x1="293.5" x2="293.5" y1="343.9814" y2="348.9814"/><line style="stroke:#A80036;stroke-width:1.5;" x1="293.5" x2="106.5" y1="348.9814" y2="348.9814"/><line style="stroke:#A80036;stroke-width:1.5;" x1="106.5" x2="106.5" y1="348.9814" y2="363.9814"/><polygon fill="#A80036" points="102.5,353.9814,106.5,363.9814,110.5,353.9814,106.5,357.9814" style="stroke:#A80036;stroke-width:1.0;"/><line style="stroke:#A80036;stroke-width:1.5;" x1="106.5" x2="106.5" y1="456.7588" y2="461.7588"/><line style="stroke:#A80036;stroke-width:1.5;" x1="106.5" x2="439" y1="461.7588" y2="461.7588"/><line style="stroke:#A80036;stroke-width:1.5;" x1="439" x2="439" y1="461.7588" y2="476.7588"/><polygon fill="#A80036" points="435,466.7588,439,476.7588,443,466.7588,439,470.7588" style="stroke:#A80036;stroke-width:1.0;"/><line style="stroke:#A80036;stroke-width:1.5;" x1="595" x2="595" y1="788.2136" y2="801.3108"/><line style="stroke:#A80036;stroke-width:1.5;" x1="595" x2="439" y1="801.3108" y2="801.3108"/><line style="stroke:#A80036;stroke-width:1.5;" x1="439" x2="439" y1="801.3108" y2="818.8108"/><polygon fill="#A80036" points="435,808.8108,439,818.8108,443,808.8108,439,812.8108" style="stroke:#A80036;stroke-width:1.0;"/><line style="stroke:#A80036;stroke-width:1.5;" x1="474" x2="538.875" y1="887.1995" y2="887.1995"/><polygon fill="#A80036" points="534.875,808.2136,538.875,798.2136,542.875,808.2136,538.875,804.2136" style="stroke:#A80036;stroke-width:1.5;"/><line style="stroke:#A80036;stroke-width:1.5;" x1="538.875" x2="538.875" y1="713.6306" y2="887.1995"/><line style="stroke:#A80036;stroke-width:1.5;" x1="538.875" x2="575.5" y1="713.6306" y2="713.6306"/><polygon fill="#A80036" points="565.5,709.6306,575.5,713.6306,565.5,717.6306,569.5,713.6306" style="stroke:#A80036;stroke-width:1.0;"/><line style="stroke:#A80036;stroke-width:1.5;" x1="106.5" x2="106.5" y1="675.4363" y2="680.4363"/><line style="stroke:#A80036;stroke-width:1.5;" x1="106.5" x2="595" y1="680.4363" y2="680.4363"/><line style="stroke:#A80036;stroke-width:1.5;" x1="595" x2="595" y1="680.4363" y2="695.4363"/><polygon fill="#A80036" points="591,685.4363,595,695.4363,599,685.4363,595,689.4363" style="stroke:#A80036;stroke-width:1.0;"/><line style="stroke:#A80036;stroke-width:1.5;" x1="439" x2="439" y1="899.1995" y2="916.6995"/><line style="stroke:#A80036;stroke-width:1.5;" x1="439" x2="726" y1="916.6995" y2="916.6995"/><line style="stroke:#A80036;stroke-width:1.5;" x1="726" x2="726" y1="916.6995" y2="933.3054"/><polygon fill="#A80036" points="722,923.3054,726,933.3054,730,923.3054,726,927.3054" style="stroke:#A80036;stroke-width:1.0;"/><line style="stroke:#A80036;stroke-width:1.5;" x1="439" x2="439" y1="557.1475" y2="569.9032"/><line style="stroke:#A80036;stroke-width:1.5;" x1="439" x2="106.5" y1="569.9032" y2="569.9032"/><line style="stroke:#A80036;stroke-width:1.5;" x1="106.5" x2="106.5" y1="569.9032" y2="582.6589"/><polygon fill="#A80036" points="102.5,572.6589,106.5,582.6589,110.5,572.6589,106.5,576.6589" style="stroke:#A80036;stroke-width:1.0;"/><line style="stroke:#A80036;stroke-width:1.5;" x1="726" x2="726" y1="969.6941" y2="976.9384"/><line style="stroke:#A80036;stroke-width:1.5;" x1="726" x2="439" y1="976.9384" y2="976.9384"/><line style="stroke:#A80036;stroke-width:1.5;" x1="439" x2="439" y1="976.9384" y2="989.6941"/><polygon fill="#A80036" points="435,979.6941,439,989.6941,443,979.6941,439,983.6941" style="stroke:#A80036;stroke-width:1.0;"/><line style="stroke:#A80036;stroke-width:1.5;" x1="895.5" x2="895.5" y1="1288.7603" y2="1301.8574"/><line style="stroke:#A80036;stroke-width:1.5;" x1="895.5" x2="439" y1="1301.8574" y2="1301.8574"/><line style="stroke:#A80036;stroke-width:1.5;" x1="439" x2="439" y1="1301.8574" y2="1319.3574"/><polygon fill="#A80036" points="435,1309.3574,439,1319.3574,443,1309.3574,439,1313.3574" style="stroke:#A80036;stroke-width:1.0;"/><line style="stroke:#A80036;stroke-width:1.5;" x1="474" x2="781.5" y1="1387.7461" y2="1387.7461"/><polygon fill="#A80036" points="777.5,1308.7603,781.5,1298.7603,785.5,1308.7603,781.5,1304.7603" style="stroke:#A80036;stroke-width:1.5;"/><line style="stroke:#A80036;stroke-width:1.5;" x1="781.5" x2="781.5" y1="1214.1772" y2="1387.7461"/><line style="stroke:#A80036;stroke-width:1.5;" x1="781.5" x2="867.5" y1="1214.1772" y2="1214.1772"/><polygon fill="#A80036" points="857.5,1210.1772,867.5,1214.1772,857.5,1218.1772,861.5,1214.1772" style="stroke:#A80036;stroke-width:1.0;"/><line style="stroke:#A80036;stroke-width:1.5;" x1="106.5" x2="106.5" y1="1175.9829" y2="1180.9829"/><line style="stroke:#A80036;stroke-width:1.5;" x1="106.5" x2="895.5" y1="1180.9829" y2="1180.9829"/><line style="stroke:#A80036;stroke-width:1.5;" x1="895.5" x2="895.5" y1="1180.9829" y2="1195.9829"/><polygon fill="#A80036" points="891.5,1185.9829,895.5,1195.9829,899.5,1185.9829,895.5,1189.9829" style="stroke:#A80036;stroke-width:1.0;"/><line style="stroke:#A80036;stroke-width:1.5;" x1="439" x2="439" y1="1399.7461" y2="1417.2461"/><line style="stroke:#A80036;stroke-width:1.5;" x1="439" x2="726" y1="1417.2461" y2="1417.2461"/><line style="stroke:#A80036;stroke-width:1.5;" x1="726" x2="726" y1="1417.2461" y2="1433.8521"/><polygon fill="#A80036" points="722,1423.8521,726,1433.8521,730,1423.8521,726,1427.8521" style="stroke:#A80036;stroke-width:1.0;"/><line style="stroke:#A80036;stroke-width:1.5;" x1="726" x2="726" y1="1057.6941" y2="1070.4498"/><line style="stroke:#A80036;stroke-width:1.5;" x1="726" x2="106.5" y1="1070.4498" y2="1070.4498"/><line style="stroke:#A80036;stroke-width:1.5;" x1="106.5" x2="106.5" y1="1070.4498" y2="1083.2056"/><polygon fill="#A80036" points="102.5,1073.2056,106.5,1083.2056,110.5,1073.2056,106.5,1077.2056" style="stroke:#A80036;stroke-width:1.0;"/><line style="stroke:#A80036;stroke-width:1.5;" x1="439" x2="439" y1="1013.6941" y2="1018.6941"/><line style="stroke:#A80036;stroke-width:1.5;" x1="439" x2="726" y1="1018.6941" y2="1018.6941"/><line style="stroke:#A80036;stroke-width:1.5;" x1="726" x2="726" y1="1018.6941" y2="1033.6941"/><polygon fill="#A80036" points="722,1023.6941,726,1033.6941,730,1023.6941,726,1027.6941" style="stroke:#A80036;stroke-width:1.0;"/><text fill="#000000" font-family="sans-serif" font-size="18" lengthAdjust="spacing" textLength="65" x="76" y="33.083">dev阶段</text><text fill="#000000" font-family="sans-serif" font-size="18" lengthAdjust="spacing" textLength="66" x="262.5" y="33.083">feat阶段</text><text fill="#000000" font-family="sans-serif" font-size="18" lengthAdjust="spacing" textLength="65" x="421" y="33.083">test阶段</text><text fill="#000000" font-family="sans-serif" font-size="18" lengthAdjust="spacing" textLength="53" x="570.5" y="33.083">fix阶段</text><text fill="#000000" font-family="sans-serif" font-size="18" lengthAdjust="spacing" textLength="72" x="711.25" y="33.083">prod阶段</text><text fill="#000000" font-family="sans-serif" font-size="18" lengthAdjust="spacing" textLength="78" x="858.5" y="33.083">hotfix阶段</text><!--MD5=[00d7feaad33e0c1a11bf6f5051edb528]
@startuml 前端项目分支管理

skin rose

|dev阶段|
start
:dev/sprint分支;
:git checkout -b feat/*;
:从dev拉出新迭代分支feat/*;
|feat阶段|
:feat/*;
:开发完成合并基线到dev分支;
|dev阶段|
:dev/sprint分支;
:提交MR到test分支进行转测;
|test阶段|
:test/sit分支;
if (存在bug?) then (有)
  |dev阶段|
  :git checkout -b fix/*;
  :从dev拉出新修复分支fix/*;
  |fix阶段|
  repeat :fix/*;
    :提交MR到test分支转测;
    |test阶段|
    :test/sit分支;
  repeat while (存在bug?) is (有) not (没有)
  |prod阶段|
  :master/线上;
endif
if (存在bug?) then (有)
  |dev阶段|
  :git checkout -b hotfix/*;
  :从dev拉出新修复分支hotfix/*;
  |hotfix阶段|
  repeat :hotfix/*;
    :提交MR到test分支转测;
    |test阶段|
    :test/sit分支;
  repeat while (存在bug?) is (有) not (没有)
  |prod阶段|
  :master/线上;
endif
stop

@enduml

PlantUML version 1.2022.7(Tue Aug 23 01:01:30 CST 2022)
(GPL source distribution)
Java Runtime: Java(TM) SE Runtime Environment
JVM: Java HotSpot(TM) 64-Bit Server VM
Default Encoding: GBK
Language: en
Country: US
--></g></svg>